<svg xmlns="http://www.w3.org/2000/svg" viewBox="0 0 72 72"><g transform="translate(8 8)"><path fill="#657786" fill-opacity=".8" d="M28 3.11C14.278 3.11 3.11 14.276 3.11 28c0 13.723 11.166 24.887 24.89 24.887S52.89 41.723 52.89 28C52.89 14.274 41.724 3.11 28 3.11z"/><path fill="#FFF" d="M28 44.593c-1.718 0-3.11-1.393-3.11-3.112V30.076c0-1.718 1.392-3.11 3.11-3.11s3.11 1.392 3.11 3.11V41.48c0 1.72-1.392 3.113-3.11 3.113z"/><circle fill="#FFF" cx="28" cy="18.148" r="4.667"/><path fill="#FFF" d="M28 56C12.56 56 0 43.44 0 28S12.56 0 28 0s28 12.56 28 28-12.56 28-28 28zm0-49.778C15.99 6.222 6.222 15.992 6.222 28S15.992 49.778 28 49.778c12.01 0 21.778-9.77 21.778-21.778S40.008 6.222 28 6.222z"/></g></svg>