<svg width="160" height="160" viewBox="0 0 160 160" xmlns="http://www.w3.org/2000/svg"><title>source_promote</title><g fill="none" fill-rule="evenodd"><path d="M95 154.8c8.4 1.8 16.5-3.5 18.3-11.7 1.7-8.2-3.5-16.3-11.8-18-8.3-1.8-16.4 3.4-18.2 11.7-1.7 8.3 3.6 16.4 11.8 18zm1.3-5.3c-5.3-1.2-8.7-6.4-7.6-11.7 1-5.3 6.3-8.6 11.6-7.5 5.3 1 8.7 6.3 7.6 11.6-1.2 5.2-6.4 8.6-11.7 7.5z" fill="#7CD7DF"/><path d="M33 113.5L142.6 159c4.6.5 16.2-7.3 17-20L97.3 36 33 113.5z" fill="#8AE2EA"/><path d="M85.2 51.7l-17 20.6 87.2 78.5c1.2-1.6 2.3-3.4 3-5.4L85.3 51.7z" fill="#ADE8ED"/><path d="M50 61.8c-18.3 21-27 43.7-19 50.5 7.7 6.7 29-5 47.2-26 18.4-21 27-43.6 19-50.4-7.7-7-29 4.7-47.2 25.8" fill="#4DC2CD"/><path d="M27.6 74.3c.4 0 .8 0 1.2.3.3.2.6.6.6 1l4 26c.2.4 0 .8-.2 1.2-.2.3-.6.6-1 .6l-7.4 1.2L23 93.3l3.7-.6v-4.5l-4.4.7-.5-3c0-.6 0-1.2.2-1.6.3-.4.8-.6 1.7-.8l2.3-.4-.6-4c-1 0-2 .2-3.4.5-1.8.2-3 1-4 2-.8 1.3-1 2.8-.8 4.7l.5 3.2-3.8.6.6 4.4 3.8-.6 1.8 11.3-14 2.2c-.4 0-.8 0-1.2-.3-.3-.2-.6-.6-.6-1l-4-26c-.2-.4 0-.8.2-1.2.2-.3.6-.6 1-.6l26-4z" fill="#7CD7DF"/><path d="M55.4 50.7c1-4.6-2.4-5-5.5-3 1.4-5.3-1.7-7.2-6.3-4-1.5 1 2 2.8 3.2 2-3 5 .8 7.5 5 4.8-1.7 7.2 4.6 3 7.7 2 2.6 3.7 0 10.4 1.4 9.7 3.6-1.5 3.7-17-5.6-11.5M73.5 82l-3.3-1s-.8 4.2-2 6c-3.5-5-4.6-8.5-9.4-2-.5-11.2-5-5-9.6 0-.7-2.5-1-2-3.7-1.7 1.3 9.2 6.2 4.3 9.8-.5.4 8.6 3.2 7 8 2 1.6 3 4 6.2 6 5.7 2.4-.5 4.2-8.5 4.2-8.5M81.7 52.4L75.4 50 73 56l6.2 2.5M39.7 10.4L33.4 8 31 14l6.2 2.5M55.7 96.4L49.4 94 47 100l6.2 2.5M21.7 118.4l-6.3-2.5L13 122l6.2 2.5M15.7 65.4L9.4 63 7 69l6.2 2.5M45.7 64.4L39.4 62 37 68l6.2 2.5" fill="#ADE8ED"/><path d="M43.4 33.8v1c0 2-.2 4.2-1 6.3-.5 2.2-1.4 4.2-2.7 6.2-1.2 2-2.7 3.6-4.5 5C33.5 54 31.4 55 29 56c-2.5.7-5 1.2-8 1.2-4.3 0-8.3-1.2-12-3.6h2c3.6 0 6.8-1 9.7-3.2-1.7 0-3.3-.6-4.6-1.6-1.3-1-2.2-2.3-2.7-4 .5.2 1 .2 1.5.2.7 0 1.4 0 2-.2-1.8-.4-3.3-1.3-4.5-2.7-1-1.4-1.7-3-1.7-5 1 .6 2.2 1 3.5 1-1-.8-1.8-1.7-2.4-2.8-.7-1.2-1-2.4-1-3.8s.4-2.7 1-4c2 2.5 4.4 4.4 7.3 5.8 2.7 1.5 5.7 2.3 9 2.5l-.3-1.8c0-2.3.8-4.2 2.3-5.7 1.5-1.5 3.4-2.3 5.6-2.3 2.2 0 4.2.8 5.7 2.5 1.8-.4 3.5-1 5-2-.6 2-1.7 3.4-3.4 4.4 1.4-.2 3-.6 4.4-1.3-1 1.6-2.4 3-4 4zM81.3 17.4l.4-1.7h4l-2.3 11c0 .8-.2 1.2-.2 1.4 0 .4 0 .6.2.7l.4.2c.6 0 1.3-.5 2.2-1.2.8-.7 1.6-1.7 2.3-3 .6-1.2 1-2.6 1-4 0-1.3-.3-2.5-.8-3.5-.4-1-1-2-2-3-1-.7-2-1.3-3.3-1.8-1.3-.4-2.8-.7-4.4-.7-1.7 0-3.2.3-4.6.7-1.4.4-2.7 1-3.7 2-1 .7-2 1.7-2.7 3-.6 1-1 2-1.4 3.4-.3 1.2-.5 2.5-.5 3.8 0 1.8.2 3.4 1 5 .7 1.4 1.7 2.6 3 3.6 1.4 1 3 1.7 5 2 1.8.5 4 .6 6.4.4 2-.3 3.5-.7 4.8-1.3 1.3-.7 2.4-1.6 3.4-2.7H93l-2.2 3c-1 .8-2 1.5-3 2-1.2.7-2.5 1-4 1.5-1.4.3-3 .4-4.6.4-2.6 0-4.8-.3-7-1-2-.6-3.6-1.6-5-3-1.4-1-2.4-2.6-3-4.3-.8-1.8-1.2-3.7-1.2-5.8 0-2.2.4-4.2 1-6 .8-2 2-3.7 3.3-5 1.3-1.5 3-2.6 5-3.4 2-.8 4.2-1.2 6.6-1.2 1.8 0 3.6.3 5.2 1 1.7.4 3 1.3 4.2 2.3 1.2 1 2 2.4 2.7 3.8.7 1.6 1 3.2 1 5 0 1.4-.2 2.7-.7 4-.5 1.4-1.2 2.6-2 3.6-1 1-2.2 2-3.4 2.5-1.3.7-2.7 1-4 1-1 0-1.6 0-2-.4-.5-.3-1-.7-1-1.3-1 1-2 1.4-3 1.6-1.3.2-2.4 0-3.5-.4-1-.4-2-1.2-2.6-2.2-.8-1-1-2.4-1-4s.2-3.2 1-4.7c.6-1.6 1.6-3 3-4 1.2-1 2.6-1.4 4.2-1.4 2 0 3.2.7 4 2zm-8.5 8c0 1.2.3 2.2.8 2.8.5.7 1.2 1 2 1 1 0 2-.4 2.6-1 .7-1 1.3-2 1.7-3 .3-1.2.4-2.4.4-3.5v-1.5l-.7-1-1-1h-1c-1 0-2 .2-2.6 1-.6.7-1.2 1.6-1.6 2.7-.4 1-.6 2.2-.6 3.4z" fill="#7CD7DF"/><path fill="#ADE8ED" d="M15.7 17.4L9.4 15 7 21l6.2 2.5"/></g></svg>