<svg width="160" height="160" viewBox="0 0 160 160" xmlns="http://www.w3.org/2000/svg"><title>source_target</title><g fill="none" fill-rule="evenodd"><path d="M153.3 73.4c0 40.5-32.8 73.4-73.2 73.4-40.3 0-73-33-73-73.4C7 33 39.7 0 80 0c40.5 0 73.3 33 73.3 73.4" fill="#D0F9FC"/><path d="M136 73.4c0 31-25 56-56 56-30.7 0-55.7-25-55.7-56s25-56 55.8-56c31 0 56 25 56 56" fill="#8AE2EA"/><path d="M33 10c6.5-1.4 12.7-2.8 13.5 0 .7 3 1.4 6.8 5.4 5.4 3.8-1.5 14-2.6 18.6-6.2C75.3 5.6 81 5.6 85.6 7c4.7 1.5 17.8 1 15 5.4-3 4.3-8.5 3.8-11.3 9-3 5 .8 8.3 4.7 8.3 4 0 8 .6 10.4-3.3 2.5-4-1.7-11.4 1.5-11 3.2.6 6.7 4 9.3 9.5 2.5 5.3 6.4 2 8 5.3 1.3 3.3 9.3 9.5 5.3 8.4-4-1-8-1.8-9 2-1 4 1.8 8-1 7.7-3-.3-4 .5-8 0-4-.3-6.2-3-9.4 2.6-3.3 5.4-5.8 9-7.2 11.6-1.5 2.5-3.7 4-2.6 9 1 5-3 3.6-3-.7 0-4.4-2.4-5.2-5.6-4.5-3.3.8-8.3 1.5-8 5 .4 3.7-1.4 8 1.5 11 3 3 6-.4 8 .7 1.7 1 7 0 5 2-1.7 1.7-8 4-4.4 7 3.5 2.8 7.2 3.7 8.6 4 1.5.4.3-3.5 5-5.3 4.7-2 12-6 13.8-2.8 1.8 3.3 1.6 2.7 8 3.5 6.6.7 8.3 2.7 11.2 8.8 3 6.2 2 5.5 6.7 7.3 4.7 1.8 7.8 1 3.4 5-4.3 4-7.6 3.8-10 8.5-2.6 4.7-.8 8-5.8 12.7-5.2 4.7-10.5 8.6-16 12-2.7 1.6-9.8 9.5-14 12.2-4 2.5-5 0-5 0s1-7.7 4.4-11c3.2-3.2 5-15.4 4-19-1-3.6-6.3-4.7-8-6-2-1.6-6.6-7.3-6.6-11 0-3.5 8.2-12.7 8.2-12.7-3.6 0-5.7-2-7.8-2.6-2.2-.8-7-7.8-11.3-8.5-4.3-.7-6.4-3.2-9.6-5.8-3.3-2.5-11.2-6-11-10 .5-4-7.8-7.3-9.2-7.3-1.5 0-4.7 0-7.6-5-3-5.2-8-10.2-6.5-14 1.5-3.5 2-7.8 1.2-11.8-.8-4-6.2-5.4-7.2-4.3-1 1-7 6-7.6 1.4-2-13.5 10-19.2 16.6-20.6z" fill="#4DC2CD"/></g></svg>