<svg width="160" height="160" viewBox="0 0 160 160" xmlns="http://www.w3.org/2000/svg"><title>source_engage</title><g fill="none" fill-rule="evenodd"><path d="M160 13c0-5-5-10-10-10H10C5 3 0 8 0 13v102.3h160V13z" fill="#7CD7DF"/><path d="M0 115.3v10c0 5 5 10 10 10h140c5 0 10-5 10-10v-10H0z" fill="#D0F9FC"/><path d="M40 155.2v4.8h80v-4.8c-11 0-20-3-20-10v-10H60v10c0 7-9 10-20 10z" fill="#8AE2EA"/><path fill="#4DC2CD" d="M40.2 155.5h79.6v4.5H40.2z"/><path fill="#ADE8ED" d="M10 13h140v94.8H10"/><path d="M82.5 125.2c0 1.4-1 2.5-2.5 2.5-1.4 0-2.5-1-2.5-2.5 0-1.3 1-2.5 2.5-2.5 1.4 0 2.5 1.2 2.5 2.5z" fill="#4DC2CD"/><path fill="#D0F9FC" d="M132.5 107.8h-24.3L40.2 13h24.3"/><path d="M68.8 69.3v6L47 66v-5.2L69 51.4v6.2l-15 5.8 15 6zm15.8-18l-6 24.8-.6 2c0 .6-.4 1-.7 1.2-.3.3-.7.4-1.3.4-1.5 0-2.2-.6-2.2-2 0-.2 0-1 .4-2.4l6-24.8c.3-1.3.6-2.3 1-2.7.2-.5.8-.8 1.6-.8.7 0 1.3 0 1.7.4.3.4.5 1 .5 1.5 0 .3 0 1-.4 2.3zm27 14.7L90 75.5v-6l15.2-6-15.2-6v-6l21.7 9.4v5z" fill="#4DC2CD"/></g></svg>