<svg xmlns="http://www.w3.org/2000/svg" width="160" height="160" viewBox="0 0 160 160"><title>source_hire</title><g fill="none" fill-rule="evenodd"><path d="M109.5 56.2c24.8 0 45-20.2 45-45.2V7h-34.2v8h30.2l-4-4c0 20.5-16.6 37.2-37 37.2v8zM50.5 48.2c-20.4 0-37-16.7-37-37.2l-4 4h30.2V7H5.5v4c0 25 20.2 45.2 45 45.2v-8z" fill="#7CD7DF" fill-rule="nonzero"/><path fill="#7CD7DF" d="M72.5 89h16v37.6h-16"/><path fill="#ADE8ED" d="M75.8 89H85v37.6H76"/><path d="M28 .3C32.7 51.7 54.4 93 80.6 93c26 0 47.8-41.3 52.3-92.7H28" fill="#7CD7DF"/><path d="M38.2.3C41.8 52.3 59.4 94 80.5 94c21 0 38.6-41.7 42.2-93.7H38.2" fill="#ADE8ED"/><path d="M121 138.5H40S58 115 80.4 115c22.5 0 40.6 23.5 40.6 23.5" fill="#7CD7DF"/><path d="M111.3 138.5H49.6s13.8-23.8 31-23.8c17 0 30.7 23.8 30.7 23.8" fill="#ADE8ED"/><path fill="#7CD7DF" d="M28 143.7H133v15.7H28"/><path fill="#4DC2CD" d="M40 138.5h81v5.2H40"/><path fill="#7CD7DF" d="M54.5 147.6h52v8h-52"/><path fill="#ADE8ED" d="M57 147.6H104v8H57"/><path d="M78.6 52.7V30.5c-4 3.2-7 4.8-8.3 4.8-.7 0-1.3-.3-1.8-.8-.5-.6-.8-1.2-.8-2 0-.7.3-1.3.8-1.7.5-.4 1.4-1 2.7-1.5 2-1 3.5-2 4.7-3 1-1 2-2 3-3.4l1.7-2.4c.3-.3.8-.5 1.6-.5s1.5.5 2 1c.6.8.8 1.7.8 3v27.7c0 3.3-1 5-3.2 5-1 0-1.8-.4-2.4-1-.5-.8-.8-1.8-.8-3z" fill="#D0F9FC"/><path d="M74.4 57.3c-1 0-1.7-.3-2.3-.7-.4-.5-.6-1-.6-2 0-.6.2-1.2.7-1.7.6-.6 1.4-.8 2.4-.8h14c1 0 1.7.2 2.2.7.5.4.8 1 .8 1.7 0 .8-.3 1.4-.8 2-.5.3-1.3.6-2.3.6h-14z" fill="#D0F9FC"/></g></svg>