<svg width="160" height="160" viewBox="0 0 160 160" xmlns="http://www.w3.org/2000/svg"><title>source_inspire</title><g fill="none" fill-rule="evenodd"><path fill="#D0F9FC" d="M31.6 77L27.2 75l-1.8 4.3 4.4 1.7 1.8-4.3M11.2 38L6.7 36 5 40.5l4.4 1.7 1.8-4.3M14.8 122.3l-4.4-1.7-1.8 4.3 4.4 1.6 1.8-4.3M48 138.6l-4.6-1.8-1.8 4.4L46 143l2-4.4M39 109.3l-4.3-1.8-1.8 4.3 4.3 1.8 1.8-4.3M11.2 65.2l-4.5-1.7L5 67.8l4.4 1.7 1.8-4.3M31.6 3.3l-4.4-1.7L25.4 6l4.4 1.6 1.8-4.3M30 141.8l-2.4-.8s-.5 3-1.3 4.3c-2.5-3.6-3.3-6-6.6-1.5-.4-7.8-3.5-3.5-6.7 0-.5-2-.7-1.6-2.6-1.3 1 6.3 4.3 3 7-.3.2 6 2 5 5.5 1.4 1 2.2 2.7 4.4 4 4 1.7-.3 3-5.8 3-5.8M151.4 125.6l-2.2-.8s-.6 3-1.3 4.2c-2.6-3.5-3.5-6-6.8-1.4-.4-7.8-3.5-3.5-6.6 0-.5-2-.7-1.6-2.7-1.4 1 6.4 4.3 3 6.8-.2.4 6 2.3 5 5.7 1.4 1 2.2 2.8 4.4 4.2 4 1.6-.3 2.7-5.8 2.7-5.8M140.6 16.3l1-2s2.6 1.6 4 2c-.7-4.2-2-6.5 3.8-5.5-5.3-6 0-5 4.7-4.5-.8-1.7-.5-1.6 1-2.7 4 5.2-1 5-5 4.4 4 4.6 2 5-3 5 .7 2 1 5-.2 5.7-1.5.8-6.2-2.4-6.2-2.4M132 6.4l4.3-1.7L138 9l-4.4 1.8-1.7-4.4M149 33.7l4.5-1.7 1.8 4.3L151 38l-2-4.3M153.4 105l4.4-1.6 1.8 4.3-4.4 1.7-1.8-4.3M126.4 145.5l4.4-1.8 1.8 4.4-4.4 1.8-1.8-4.3M117.5 126.4l4.4-1.7 1.7 4.3-4.4 1.8-1.8-4.4M130.6 102.4l4.4-1.8 1.8 4.3-4.4 1.7-1.8-4.3M153 60.4l4.5-1.8 1.8 4.3-4.4 1.7-2-4.3M135.2 78.3l4.4-1.8 1.8 4.4-4.4 1.6-1.8-4.3M19.2 20l-1.7-1.7s-1.8 2.3-3 3.2c-.7-4.3-.2-6.8-5.3-4.2 3.2-7.2-1.5-4.7-6-3 .5-2 .2-1.7-1.7-2.4-2 6 2.5 4.6 6.3 2.8-2.5 5.5-.3 5.3 4.3 3.7 0 2.4.6 5.2 2 5.5 1.6.4 5.2-4 5.2-4M10.4 102.3l1-2s2.6 1.6 4 2c-.6-4.2-1.8-6.5 3.8-5.5-5.3-6 0-5 4.8-4.5-1-1.7-.6-1.6 1-2.7 3.8 5.2-1 5-5.2 4.5 4 4.6 2 5-3 5 .8 2.2 1 5-.2 5.7-1.4.8-6.2-2.4-6.2-2.4"/><path d="M72 148.2c0 6 5 10.8 11 10.8s10.8-4.8 10.8-10.8H72" fill="#8AE2EA"/><path d="M63 122.5h39c2.3-11.5 9.7-22.6 17.4-34.3 9-13.5 18.3-27.6 18.3-41.2C137.7 21.2 113 .3 82.5.3 52 .3 27.3 21.3 27.3 47c0 13.6 9.3 27.7 18.2 41.2C53.3 100 60.7 111 63 122.5z" fill="#D0F9FC"/><path d="M67 80.2l1.2 5 2.2 8.6 6.8 26.2H79l-6.2-26.6-2-8.8-1-4.5c2.3-.4 7.5-2.2 13-8 5.6 5.8 10.8 7.6 13 8-.2 1.6-.5 3-1 4.6l-2 8.8-6 26.6h1.7l6.8-26.2 2.2-8.7 1.2-4.8c2.2-.2 4.2-.8 5.8-2.3 1.7-1.6 2.6-3.7 2.2-6-.2-1-1-2.3-2.6-2.8-.6-.2-1.3-.3-2.3 0-.7.2-1.3.7-1.7 1-1.5 1.7-2 3.3-2.7 5l-.7 2.4s-2.5.2-7.7-3.2c-3-2-3.8-3.3-4.6-4.2 1-1 1.8-2 2.4-3.3.4-.8.7-1.6.8-2.5 0-.8 0-2-.6-2.7-.5-1-1.3-1.6-2.5-2-.5-.3-1-.4-1.7-.4-.5 0-1 0-1.6.3-1.2.5-2 1.2-2.5 2-.5 1-.7 2-.6 2.8.2 1 .5 1.7 1 2.4.5 1.2 1.4 2.3 2.3 3.2-.8 1-1.7 2.3-4.6 4.2-5.2 3.4-7.6 3.2-7.6 3.2 0-.8-.4-1.6-.6-2.4-.7-1.7-1.2-3.3-2.7-5-.4-.3-1-.8-1.7-1-1-.3-1.7-.2-2.4 0-1.6.5-2.4 1.8-2.6 3-.4 2 .5 4.2 2 5.7 1.7 1.4 3.8 2 6 2.2m33-4.3c.5-1.6 1.2-3.2 2-4 .3-.4.6-.5.7-.5h.4c.5 0 .8.4 1 1 0 1.2-.5 2.7-1.5 3.7-.8.7-2 1.2-3 1.4 0-.6.3-1.2.5-1.7M81 63c.6-.8 1.2-1.2 1.8-1.2.7 0 1.3.4 1.8 1 .5 1 .3 2-.2 3.2-.4.8-1 1.6-1.6 2.3-.6-.7-1-1.5-1.5-2.3-.6-1-.7-2.3-.2-3M62 72.4c0-.6.4-1 .7-1h.5s.3 0 .5.4c1 .8 1.7 2.4 2.2 4l.6 1.6c-1.2-.2-2.4-.7-3-1.4-1.2-1-1.7-2.5-1.5-3.7" fill="#7CD7DF"/><path fill="#8AE2EA" d="M63 127.6h39v5H63"/><path fill="#8AE2EA" d="M65.5 131.4h34v11h-34"/><path fill="#8AE2EA" d="M68 135.3H97v16H68"/></g></svg>